<svg width="100" height="85" viewBox="0 0 100 85" fill="none" xmlns="http://www.w3.org/2000/svg">
<path d="M84.2801 31.8963C83.3738 31.3836 82.225 30.9168 81.7238 30.7212C81.7825 30.2391 81.9047 29.1369 81.9047 28.1619C81.9047 16.0951 71.4235 6.28045 58.542 6.28045C51.1319 6.28045 44.0865 9.62921 39.6954 15.2354C39.2163 15.8491 38.7362 16.5836 38.4264 17.0801C37.879 16.7809 37.0362 16.3484 36.228 16.0618C34.5646 15.4715 32.8126 15.1714 31.0163 15.1714C22.8452 15.1714 16.1971 21.3977 16.1971 29.0504C16.1971 30.0354 16.3818 31.0853 16.4665 31.5214C16.0451 31.7359 15.0349 32.2712 14.2229 32.839C9.51438 36.1156 6.70505 41.3488 6.70505 46.8342C6.70505 56.4497 15.057 64.2719 25.3226 64.2719H32.2267C33.0733 64.2719 33.7593 63.6303 33.7593 62.8373C33.7593 62.0433 33.0733 61.4017 32.2267 61.4017H25.3226C16.7455 61.4017 9.76837 54.8673 9.76837 46.8342C9.76837 42.1823 12.0582 37.9207 16.049 35.1397C16.8889 34.5557 18.078 33.9663 18.0848 33.9618C19.1383 33.4482 19.7492 32.2361 19.5077 31.1439C19.5058 31.1321 19.2595 30.0066 19.2595 29.0504C19.2595 22.9801 24.5337 18.0408 31.0163 18.0408C32.4393 18.0408 33.8266 18.2769 35.1409 18.7446C36.1559 19.1042 37.3518 19.8242 37.3623 19.8314C37.9213 20.1703 38.6073 20.2793 39.2461 20.1288C39.8879 19.9792 40.4391 19.5782 40.7634 19.0303C40.7701 19.0176 41.4917 17.793 42.1661 16.9314C45.9828 12.0588 52.1036 9.14889 58.542 9.14889C69.736 9.14889 78.8413 17.6776 78.8413 28.1619C78.8413 29.237 78.6576 30.5806 78.6547 30.5923C78.4959 31.7215 79.2271 32.8813 80.3499 33.2932C80.3634 33.2977 81.7498 33.8176 82.6994 34.3529C87.4156 37.0168 90.2316 41.6822 90.2316 46.8333C90.2316 54.8664 83.2545 61.4008 74.6774 61.4008H67.7733C66.9267 61.4008 66.2407 62.0424 66.2407 62.8364C66.2407 63.6294 66.9267 64.271 67.7733 64.271H74.6774C84.943 64.271 93.295 56.4488 93.295 46.8333C93.294 40.6693 89.9247 35.0847 84.2801 31.8963Z" fill="#8080808a"/>
<path d="M49.9995 78.7196C50.8452 78.7196 51.5312 78.0761 51.5312 77.2849V39.4419L63.6565 50.8003C63.9567 51.0805 64.3483 51.2211 64.7389 51.2211C65.1305 51.2211 65.523 51.0805 65.8222 50.8003C66.4206 50.2397 66.4206 49.3314 65.8222 48.7717L52.0671 35.8885C50.9655 34.854 49.0326 34.854 47.932 35.8867L34.1768 48.7717C33.5784 49.3314 33.5784 50.2397 34.1768 50.8003C34.7743 51.3608 35.7451 51.3608 36.3425 50.8003L48.4688 39.4419V77.2858C48.4679 78.077 49.1538 78.7196 49.9995 78.7196Z" fill="#8080808a"/>
</svg>
